<?xml version="1.0" encoding="utf-8"?> <svg version="1.1" xmlns="http://www.w3.org/2000/svg" xmlns:xlink="http://www.w3.org/1999/xlink" x="0px" y="0px" viewBox="0 0 595.3 841.9" style="enable-background:new 0 0 595.3 841.9;" xml:space="preserve"> <style type="text/css"> svg{overflow: hidden;}#rocket{-webkit-animation: fly 30s ease; -moz-animation: fly 30s ease; -o-animation: fly 30s ease; animation: fly 30s ease; -webkit-animation-fill-mode: forwards; -moz-animation-fill-mode: forwards; -o-animation-fill-mode: forwards; animation-fill-mode: forwards;}@-webkit-keyframes fly{from{-webkit-transform: translate(0, 235px); transform: translate(0, 235px);}to{-webkit-transform: translate(0, -300px); transform: translate(0, -300px);}}@-moz-keyframes fly{from{-moz-transform: translate(0, 235px); transform: translate(0, 235px);}to{-moz-transform: translate(0, -300px); transform: translate(0, -300px);}}@-o-keyframes fly{from{-o-transform: translate(0, 235px); transform: translate(0, 235px);}to{-o-transform: translate(0, -300px); transform: translate(0, -300px);}}@keyframes fly{from{-webkit-transform: translate(0, 235px); -moz-transform: translate(0, 235px); -o-transform: translate(0, 235px); transform: translate(0, 235px);}to{-webkit-transform: translate(0, -300px); -moz-transform: translate(0, -300px); -o-transform: translate(0, -300px); transform: translate(0, -300px);}}#nozzle{-webkit-transform-origin: 0px 730px; -moz-transform-origin: 0px 730px; -ms-transform-origin: 0px 730px; -o-transform-origin: 0px 730px; transform-origin: 0px 730px; -webkit-animation: stretchnozzle 30s ease; -moz-animation: stretchnozzle 30s ease; -o-animation: stretchnozzle 30s ease; animation: stretchnozzle 30s ease; -webkit-animation-fill-mode: forwards; -moz-animation-fill-mode: forwards; -o-animation-fill-mode: forwards; animation-fill-mode: forwards;}@-webkit-keyframes stretchnozzle{from{-webkit-transform: scale(1, 0); transform: scale(1, 0);}to{-webkit-transform: scale(1, 2.3); transform: scale(1, 2.3);}}@-moz-keyframes stretchnozzle{from{-moz-transform: scale(1, 0); transform: scale(1, 0);}to{-moz-transform: scale(1, 2.3); transform: scale(1, 2.3);}}@-o-keyframes stretchnozzle{from{-o-transform: scale(1, 0); transform: scale(1, 0);}to{-o-transform: scale(1, 2.3); transform: scale(1, 2.3);}}@keyframes stretchnozzle{from{-webkit-transform: scale(1, 0); -moz-transform: scale(1, 0); -o-transform: scale(1, 0); transform: scale(1, 0);}to{-webkit-transform: scale(1, 2.3); -moz-transform: scale(1, 2.3); -o-transform: scale(1, 2.3); transform: scale(1, 2.3);}}.cloud{-webkit-animation-fill-mode: forwards; -moz-animation-fill-mode: forwards; -o-animation-fill-mode: forwards; animation-fill-mode: forwards; -webkit-animation: cloudfloat 20s ease-in-out 0s infinite alternate; -moz-animation: cloudfloat 20s ease-in-out 0s infinite alternate; -o-animation: cloudfloat 20s ease-in-out 0s infinite alternate; animation: cloudfloat 20s ease-in-out 0s infinite alternate; -webkit-transform-origin: 400px 400px; -moz-transform-origin: 400px 400px; -ms-transform-origin: 400px 400px; -o-transform-origin: 400px 400px; transform-origin: 400px 400px;}#cloud1{-webkit-animation-name: cloudfloatright; -moz-animation-name: cloudfloatright; -o-animation-name: cloudfloatright; animation-name: cloudfloatright;}#cloud2{-webkit-animation-name: cloudfloatright; -moz-animation-name: cloudfloatright; -o-animation-name: cloudfloatright; animation-name: cloudfloatright; -webkit-animation-delay: -10s; -moz-animation-delay: -10s; -o-animation-delay: -10s; animation-delay: -10s; -webkit-animation-duration: 21.777s; -moz-animation-duration: 21.777s; -o-animation-duration: 21.777s; animation-duration: 21.777s; -webkit-animation-direction: alternate-reverse; -moz-animation-direction: alternate-reverse; -o-animation-direction: alternate-reverse; animation-direction: alternate-reverse;}#cloud3{-webkit-animation-name: cloudfloatright; -moz-animation-name: cloudfloatright; -o-animation-name: cloudfloatright; animation-name: cloudfloatright; -webkit-animation-delay: -17s; -moz-animation-delay: -17s; -o-animation-delay: -17s; animation-delay: -17s; -webkit-animation-duration: 18.577s; -moz-animation-duration: 18.577s; -o-animation-duration: 18.577s; animation-duration: 18.577s;}#cloudsm{-webkit-animation: none; -moz-animation: none; -o-animation: none; animation: none;}#cloud4{-webkit-animation-name: cloudfloatleft; -moz-animation-name: cloudfloatleft; -o-animation-name: cloudfloatleft; animation-name: cloudfloatleft; -webkit-animation-delay: -8s; -moz-animation-delay: -8s; -o-animation-delay: -8s; animation-delay: -8s; -webkit-animation-duration: 26.177s; -moz-animation-duration: 26.177s; -o-animation-duration: 26.177s; animation-duration: 26.177s; -webkit-animation-direction: alternate-reverse; -moz-animation-direction: alternate-reverse; -o-animation-direction: alternate-reverse; animation-direction: alternate-reverse;}#cloud5{-webkit-animation-name: cloudfloatleft; -moz-animation-name: cloudfloatleft; -o-animation-name: cloudfloatleft; animation-name: cloudfloatleft; -webkit-animation-delay: -4s; -moz-animation-delay: -4s; -o-animation-delay: -4s; animation-delay: -4s; -webkit-animation-duration: 19.177s; -moz-animation-duration: 19.177s; -o-animation-duration: 19.177s; animation-duration: 19.177s;}@-webkit-keyframes cloudfloatright{0%{-webkit-transform: translate(28px, -2px) scale(1, 1); transform: translate(28px, -2px) scale(1, 1);}25%{-webkit-transform: translate(2px, 2px) scale(1.1, 1.05); transform: translate(2px, 2px) scale(1.1, 1.05);}50%{-webkit-transform: translate(16px, 5px) scale(1.1, 1.08); transform: translate(16px, 5px) scale(1.1, 1.08);;}75%{-webkit-transform: translate(8px, 1px) scale(1.08, 1.12); transform: translate(8px, 1px) scale(1.08, 1.12);}100%{-webkit-transform: translate(28px, -2px) scale(1, 1); transform: translate(28px, -2px) scale(1, 1);;}}@-moz-keyframes cloudfloatright{0%{-moz-transform: translate(28px, -2px) scale(1, 1); transform: translate(28px, -2px) scale(1, 1);}25%{-moz-transform: translate(2px, 2px) scale(1.1, 1.05); transform: translate(2px, 2px) scale(1.1, 1.05);}50%{-moz-transform: translate(16px, 5px) scale(1.1, 1.08); transform: translate(16px, 5px) scale(1.1, 1.08);;}75%{-moz-transform: translate(8px, 1px) scale(1.08, 1.12); transform: translate(8px, 1px) scale(1.08, 1.12);}100%{-moz-transform: translate(28px, -2px) scale(1, 1); transform: translate(28px, -2px) scale(1, 1);;}}@-o-keyframes cloudfloatright{0%{-o-transform: translate(28px, -2px) scale(1, 1); transform: translate(28px, -2px) scale(1, 1);}25%{-o-transform: translate(2px, 2px) scale(1.1, 1.05); transform: translate(2px, 2px) scale(1.1, 1.05);}50%{-o-transform: translate(16px, 5px) scale(1.1, 1.08); transform: translate(16px, 5px) scale(1.1, 1.08);;}75%{-o-transform: translate(8px, 1px) scale(1.08, 1.12); transform: translate(8px, 1px) scale(1.08, 1.12);}100%{-o-transform: translate(28px, -2px) scale(1, 1); transform: translate(28px, -2px) scale(1, 1);;}}@keyframes cloudfloatright{0%{-webkit-transform: translate(28px, -2px) scale(1, 1); -moz-transform: translate(28px, -2px) scale(1, 1); -o-transform: translate(28px, -2px) scale(1, 1); transform: translate(28px, -2px) scale(1, 1);}25%{-webkit-transform: translate(2px, 2px) scale(1.1, 1.05); -moz-transform: translate(2px, 2px) scale(1.1, 1.05); -o-transform: translate(2px, 2px) scale(1.1, 1.05); transform: translate(2px, 2px) scale(1.1, 1.05);}50%{-webkit-transform: translate(16px, 5px) scale(1.1, 1.08); -moz-transform: translate(16px, 5px) scale(1.1, 1.08); -o-transform: translate(16px, 5px) scale(1.1, 1.08); transform: translate(16px, 5px) scale(1.1, 1.08);;}75%{-webkit-transform: translate(8px, 1px) scale(1.08, 1.12); -moz-transform: translate(8px, 1px) scale(1.08, 1.12); -o-transform: translate(8px, 1px) scale(1.08, 1.12); transform: translate(8px, 1px) scale(1.08, 1.12);}100%{-webkit-transform: translate(28px, -2px) scale(1, 1); -moz-transform: translate(28px, -2px) scale(1, 1); -o-transform: translate(28px, -2px) scale(1, 1); transform: translate(28px, -2px) scale(1, 1);;}}@-webkit-keyframes cloudfloatleft{0%{-webkit-transform: translate(-28px, -2px) scale(1, 1); transform: translate(-28px, -2px) scale(1, 1);}25%{-webkit-transform: translate(-2px, 2px) scale(1.1, 1.05); transform: translate(-2px, 2px) scale(1.1, 1.05);}50%{-webkit-transform: translate(-16px, 5px) scale(1.1, 1.08); transform: translate(-16px, 5px) scale(1.1, 1.08);;}75%{-webkit-transform: translate(-8px, 1px) scale(1.08, 1.12); transform: translate(-8px, 1px) scale(1.08, 1.12);}100%{-webkit-transform: translate(-28px, -2px) scale(1, 1); transform: translate(-28px, -2px) scale(1, 1);;}}@-moz-keyframes cloudfloatleft{0%{-moz-transform: translate(-28px, -2px) scale(1, 1); transform: translate(-28px, -2px) scale(1, 1);}25%{-moz-transform: translate(-2px, 2px) scale(1.1, 1.05); transform: translate(-2px, 2px) scale(1.1, 1.05);}50%{-moz-transform: translate(-16px, 5px) scale(1.1, 1.08); transform: translate(-16px, 5px) scale(1.1, 1.08);;}75%{-moz-transform: translate(-8px, 1px) scale(1.08, 1.12); transform: translate(-8px, 1px) scale(1.08, 1.12);}100%{-moz-transform: translate(-28px, -2px) scale(1, 1); transform: translate(-28px, -2px) scale(1, 1);;}}@-o-keyframes cloudfloatleft{0%{-o-transform: translate(-28px, -2px) scale(1, 1); transform: translate(-28px, -2px) scale(1, 1);}25%{-o-transform: translate(-2px, 2px) scale(1.1, 1.05); transform: translate(-2px, 2px) scale(1.1, 1.05);}50%{-o-transform: translate(-16px, 5px) scale(1.1, 1.08); transform: translate(-16px, 5px) scale(1.1, 1.08);;}75%{-o-transform: translate(-8px, 1px) scale(1.08, 1.12); transform: translate(-8px, 1px) scale(1.08, 1.12);}100%{-o-transform: translate(-28px, -2px) scale(1, 1); transform: translate(-28px, -2px) scale(1, 1);;}}@keyframes cloudfloatleft{0%{-webkit-transform: translate(-28px, -2px) scale(1, 1); -moz-transform: translate(-28px, -2px) scale(1, 1); -o-transform: translate(-28px, -2px) scale(1, 1); transform: translate(-28px, -2px) scale(1, 1);}25%{-webkit-transform: translate(-2px, 2px) scale(1.1, 1.05); -moz-transform: translate(-2px, 2px) scale(1.1, 1.05); -o-transform: translate(-2px, 2px) scale(1.1, 1.05); transform: translate(-2px, 2px) scale(1.1, 1.05);}50%{-webkit-transform: translate(-16px, 5px) scale(1.1, 1.08); -moz-transform: translate(-16px, 5px) scale(1.1, 1.08); -o-transform: translate(-16px, 5px) scale(1.1, 1.08); transform: translate(-16px, 5px) scale(1.1, 1.08);;}75%{-webkit-transform: translate(-8px, 1px) scale(1.08, 1.12); -moz-transform: translate(-8px, 1px) scale(1.08, 1.12); -o-transform: translate(-8px, 1px) scale(1.08, 1.12); transform: translate(-8px, 1px) scale(1.08, 1.12);}100%{-webkit-transform: translate(-28px, -2px) scale(1, 1); -moz-transform: translate(-28px, -2px) scale(1, 1); -o-transform: translate(-28px, -2px) scale(1, 1); transform: translate(-28px, -2px) scale(1, 1);;}}#text{-webkit-animation: textfadein 2s linear; -moz-animation: textfadein 2s linear; -o-animation: textfadein 2s linear; animation: textfadein 2s linear;}@-webkit-keyframes textfadein{from{opacity: 0;}to{opacity: 1;}}@-moz-keyframes textfadein{from{opacity: 0;}to{opacity: 1;}}@-o-keyframes textfadein{from{opacity: 0;}to{opacity: 1;}}@keyframes textfadein{from{opacity: 0;}to{opacity: 1;}}.st0{fill: #3E2035;}.st1{fill: none;}.st2{fill: #E63326;}.st3{fill: #E9492C;}.st4{fill: #F28D26;}.st5{fill: #FBF1A5;}.st6{fill: #FFFFFF;}.st7{fill: #442E43;}.st8{fill: #1A0E16;}.st9{fill: #422D47;}.st10{fill: #241321;}.st11{fill: #462D44;}.st12{fill: none; stroke: #FFE602; stroke-miterlimit: 10;}.st13{fill: #1A0F13;}.st14{fill: #1A0E15;}.st15{fill:none; stroke:#FFFFFF; stroke-miterlimit:10;}</style> <defs> <rect id="rect" width="100%" height="100%" fill="none" stroke="blue"/> <clipPath id="clip"> <use xlink:href="#rect"/> </clipPath> </defs> <g id="container" clip-path="url(#clip)"> <g id="background"> <rect id="XMLID_1_" class="st0" width="595.3" height="499.5"/> <g id="XMLID_8_"> <path id="XMLID_9_" class="st1" d="M297.6,182.8c107.1,0,208.3,25.7,297.6,71.2V0H0v253.9C89.4,208.4,190.5,182.8,297.6,182.8z"/> <path id="XMLID_10_" class="st2" d="M0,253.9v245.5c79.5-69.6,183.6-111.9,297.6-111.9s218.1,42.2,297.6,111.9V253.9c-89.4-45.5-190.5-71.2-297.6-71.2S89.4,208.4,0,253.9z"/> <path id="XMLID_11_" class="st3" d="M0,499.5v342.4h9.9c0-0.8,0-1.6,0-2.4c0-158.9,128.8-287.7,287.7-287.7s287.7,128.8,287.7,287.7c0,0.8,0,1.6,0,2.4h9.9V499.5c-79.5-69.6-183.6-111.9-297.6-111.9S79.5,429.8,0,499.5z"/> <path id="XMLID_20_" class="st4" d="M297.6,551.8C138.7,551.8,9.9,680.6,9.9,839.5c0,0.8,0,1.6,0,2.4h137.7c0-0.8,0-1.6,0-2.4c0-82.9,67.2-150,150-150s150,67.2,150,150c0,0.8,0,1.6,0,2.4h137.7c0-0.8,0-1.6,0-2.4C585.4,680.6,456.6,551.8,297.6,551.8z"/> <path id="XMLID_21_" class="st5" d="M297.6,689.5c-82.9,0-150,67.2-150,150c0,0.8,0,1.6,0,2.4h300c0-0.8,0-1.6,0-2.4C447.7,756.7,380.5,689.5,297.6,689.5z"/> </g> <g id="XMLID_72_"> <g id="XMLID_130_"> <path id="XMLID_134_" class="st6" d="M6,5c0.8,0,0.8-1.3,0-1.3C5.2,3.7,5.2,5,6,5L6,5z"/> </g> </g> <g id="XMLID_114_"> <g id="XMLID_172_"> <path id="XMLID_176_" class="st6" d="M30,6.9c1.6,0,1.6-2.5,0-2.5C28.4,4.4,28.4,6.9,30,6.9L30,6.9z"/> </g> </g> <g id="XMLID_128_"> <g id="XMLID_186_"> <path id="XMLID_190_" class="st6" d="M87,4.3c1.6,0,1.6-2.5,0-2.5C85.4,1.8,85.4,4.3,87,4.3L87,4.3z"/> </g> </g> <g id="XMLID_184_"> <g id="XMLID_242_"> <path id="XMLID_246_" class="st6" d="M3.3,47.9c2.4,0,2.4-3.8,0-3.8C0.9,44.1,0.9,47.9,3.3,47.9L3.3,47.9z"/> </g> </g> <circle id="XMLID_65_" class="st5" cx="445.4" cy="592.6" r="22.2"/> <circle id="XMLID_82_" class="st5" cx="144.1" cy="596.1" r="7.1"/> <circle id="XMLID_107_" class="st4" cx="528.3" cy="464.4" r="7.9"/> <circle id="XMLID_290_" class="st4" cx="200.5" cy="404.6" r="7.9"/> <circle id="XMLID_327_" class="st4" cx="24.8" cy="471.7" r="4.5"/> <circle id="XMLID_334_" class="st3" cx="64" cy="222" r="24.1"/> <circle id="XMLID_335_" class="st3" cx="467" cy="208.1" r="9.3"/> </g> <g id="trees_x2C__stars_x2C__clouds"> <path id="cloud5" class="st4 cloud" d="M0,636.5h105c0,0,0.5-11-8.3-9.2c0,0-8.8-25.6-27.4-16.9c0,0-5.4-19-29.9-13.2c0,0-10.3-17.9-23.5-14.8c0,0-6.6-13.7-15.8-11.8V636.5z"/> <g id="XMLID_4_"> <g id="XMLID_250_"> <path id="XMLID_254_" class="st6" d="M28.3,23.6c0.8,0,0.8-1.3,0-1.3C27.5,22.4,27.5,23.6,28.3,23.6L28.3,23.6z"/> </g> </g> <g id="XMLID_7_"> <g id="XMLID_233_"> <path id="XMLID_237_" class="st6" d="M101,11.3c0.8,0,0.8-1.3,0-1.3C100.2,10,100.2,11.3,101,11.3L101,11.3z"/> </g> </g> <g id="XMLID_12_"> <g id="XMLID_226_"> <path id="XMLID_231_" class="st6" d="M43.7,12.6c0.8,0,0.8-1.3,0-1.3C42.9,11.4,42.9,12.6,43.7,12.6L43.7,12.6z"/> </g> </g> <g id="XMLID_13_"> <g id="XMLID_220_"> <path id="XMLID_224_" class="st6" d="M432.3,88.4c0.8,0,0.8-1.3,0-1.3C431.5,87.2,431.5,88.4,432.3,88.4L432.3,88.4z"/> </g> </g> <g id="XMLID_23_"> <g id="XMLID_214_"> <path id="XMLID_218_" class="st6" d="M249.8,128.2c0.8,0,0.8-1.3,0-1.3C249,126.9,249,128.2,249.8,128.2L249.8,128.2z"/> </g> </g> <g id="XMLID_28_"> <g id="XMLID_208_"> <path id="XMLID_212_" class="st6" d="M417.3,69.8c0.8,0,0.8-1.3,0-1.3C416.5,68.5,416.5,69.8,417.3,69.8L417.3,69.8z"/> </g> </g> <g id="XMLID_30_"> <g id="XMLID_202_"> <path id="XMLID_206_" class="st6" d="M11.7,77c0.8,0,0.8-1.3,0-1.3C10.9,75.7,10.9,77,11.7,77L11.7,77z"/> </g> </g> <g id="XMLID_37_"> <g id="XMLID_195_"> <path id="XMLID_200_" class="st6" d="M37.7,90c0.8,0,0.8-1.3,0-1.3C36.9,88.7,36.9,90,37.7,90L37.7,90z"/> </g> </g> <g id="XMLID_44_"> <g id="XMLID_182_"> <path id="XMLID_193_" class="st6" d="M40.3,58.3c0.8,0,0.8-1.3,0-1.3C39.5,57,39.5,58.3,40.3,58.3L40.3,58.3z"/> </g> </g> <g id="XMLID_51_"> <g id="XMLID_168_"> <path id="XMLID_180_" class="st6" d="M189,61.5c0.8,0,0.8-1.3,0-1.3C188.2,60.3,188.2,61.5,189,61.5L189,61.5z"/> </g> </g> <g id="XMLID_58_"> <g id="XMLID_161_"> <path id="XMLID_166_" class="st6" d="M16.3,50c0.8,0,0.8-1.3,0-1.3C15.5,48.7,15.5,50,16.3,50L16.3,50z"/> </g> </g> <g id="XMLID_79_"> <g id="XMLID_146_"> <path id="XMLID_151_" class="st6" d="M184.7,17.5c1.6,0,1.6-2.5,0-2.5C183.1,15,183.1,17.5,184.7,17.5L184.7,17.5z"/> </g> </g> <g id="XMLID_86_"> <g id="XMLID_139_"> <path id="XMLID_144_" class="st6" d="M36,46.6c1.6,0,1.6-2.5,0-2.5C34.4,44.1,34.4,46.6,36,46.6L36,46.6z"/> </g> </g> <g id="XMLID_93_"> <g id="XMLID_126_"> <path id="XMLID_137_" class="st6" d="M24,82.9c1.6,0,1.6-2.5,0-2.5C22.4,80.4,22.4,82.9,24,82.9L24,82.9z"/> </g> </g> <g id="XMLID_100_"> <g id="XMLID_119_"> <path id="XMLID_124_" class="st6" d="M185,49.5c1.6,0,1.6-2.5,0-2.5C183.4,47,183.4,49.5,185,49.5L185,49.5z"/> </g> </g> <g id="XMLID_121_"> <g id="XMLID_104_"> <path id="XMLID_109_" class="st6" d="M231.5,129.1c1.6,0,1.6-2.5,0-2.5C229.9,126.6,229.8,129.1,231.5,129.1L231.5,129.1z"/> </g> </g> <g id="XMLID_135_"> <g id="XMLID_97_"> <path id="XMLID_102_" class="st6" d="M259.5,74.3c1.6,0,1.6-2.5,0-2.5C257.8,71.8,257.8,74.3,259.5,74.3L259.5,74.3z"/> </g> </g> <g id="XMLID_142_"> <g id="XMLID_90_"> <path id="XMLID_95_" class="st6" d="M64,9.2c2.4,0,2.4-3.7,0-3.7C61.6,5.5,61.6,9.2,64,9.2L64,9.2z"/> </g> </g> <g id="XMLID_149_"> <g id="XMLID_83_"> <path id="XMLID_88_" class="st6" d="M91.7,20.9c2.4,0,2.4-3.8,0-3.8C89.3,17.1,89.2,20.9,91.7,20.9L91.7,20.9z"/> </g> </g> <g id="XMLID_156_"> <g id="XMLID_76_"> <path id="XMLID_81_" class="st6" d="M414.8,66.5c2.4,0,2.4-3.7,0-3.7C412.4,62.8,412.4,66.5,414.8,66.5L414.8,66.5z"/> </g> </g> <g id="XMLID_163_"> <g id="XMLID_69_"> <path id="XMLID_74_" class="st6" d="M421.3,112c2.4,0,2.4-3.8,0-3.8C418.9,108.3,418.9,112,421.3,112L421.3,112z"/> </g> </g> <g id="XMLID_170_"> <g id="XMLID_62_"> <path id="XMLID_67_" class="st6" d="M28.3,66.5c2.4,0,2.4-3.7,0-3.7C25.9,62.8,25.9,66.5,28.3,66.5L28.3,66.5z"/> </g> </g> <g id="XMLID_177_"> <g id="XMLID_55_"> <path id="XMLID_60_" class="st6" d="M39.3,27.2c2.4,0,2.4-3.8,0-3.8C36.9,23.5,36.9,27.2,39.3,27.2L39.3,27.2z"/> </g> </g> <g id="XMLID_191_"> <g id="XMLID_48_"> <path id="XMLID_53_" class="st6" d="M73.2,85.5c6.4,0,6.4-10,0-10C66.7,75.5,66.7,85.5,73.2,85.5L73.2,85.5z"/> </g> </g> <g id="XMLID_198_"> <g id="XMLID_41_"> <path id="XMLID_46_" class="st6" d="M322.7,109.1c6.4,0,6.4-10,0-10C316.3,99.1,316.3,109.1,322.7,109.1L322.7,109.1z"/> </g> </g> <ellipse id="XMLID_280_" transform="matrix(-2.193316e-002 0.9998 -0.9998 -2.193316e-002 612.4106 -547.3786)" class="st6" cx="574" cy="25.9" rx="2" ry="1.8"/> <g id="XMLID_279_"> <g id="XMLID_460_"> <path id="XMLID_464_" class="st6" d="M491.1,18.8c3.2,0,3.2-5,0-5C487.9,13.8,487.9,18.8,491.1,18.8L491.1,18.8z"/> </g> </g> <g id="XMLID_278_"> <g id="XMLID_454_"> <path id="XMLID_458_" class="st6" d="M568.5,34c0.8,0,0.8-1.3,0-1.3C567.7,32.8,567.7,34,568.5,34L568.5,34z"/> </g> </g> <g id="XMLID_277_"> <g id="XMLID_448_"> <path id="XMLID_452_" class="st6" d="M579.1,20.6c0.8,0,0.8-1.3,0-1.3C578.3,19.4,578.3,20.6,579.1,20.6L579.1,20.6z"/> </g> </g> <g id="XMLID_276_"> <g id="XMLID_442_"> <path id="XMLID_446_" class="st6" d="M179.9,99.2c0.8,0,0.8-1.3,0-1.3C179.1,98,179.1,99.2,179.9,99.2L179.9,99.2z"/> </g> </g> <g id="XMLID_275_"> <g id="XMLID_436_"> <path id="XMLID_440_" class="st6" d="M579.1,49.6c0.8,0,0.8-1.3,0-1.3C578.3,48.4,578.3,49.6,579.1,49.6L579.1,49.6z"/> </g> </g> <g id="XMLID_274_"> <g id="XMLID_430_"> <path id="XMLID_434_" class="st6" d="M279,147.7c0.8,0,0.8-1.3,0-1.3C278.2,146.4,278.2,147.7,279,147.7L279,147.7z"/> </g> </g> <g id="XMLID_273_"> <g id="XMLID_424_"> <path id="XMLID_428_" class="st6" d="M192.6,96c0.8,0,0.8-1.3,0-1.3C191.8,94.8,191.8,96,192.6,96L192.6,96z"/> </g> </g> <g id="XMLID_272_"> <g id="XMLID_418_"> <path id="XMLID_422_" class="st6" d="M490.2,44.2c0.8,0,0.8-1.3,0-1.3C489.4,43,489.4,44.2,490.2,44.2L490.2,44.2z"/> </g> </g> <g id="XMLID_271_"> <g id="XMLID_412_"> <path id="XMLID_416_" class="st6" d="M537.5,13.6c0.8,0,0.8-1.3,0-1.3C536.7,12.4,536.7,13.6,537.5,13.6L537.5,13.6z"/> </g> </g> <g id="XMLID_270_"> <g id="XMLID_406_"> <path id="XMLID_410_" class="st6" d="M521.5,93.3c0.8,0,0.8-1.3,0-1.3C520.7,92.1,520.7,93.3,521.5,93.3L521.5,93.3z"/> </g> </g> <g id="XMLID_269_"> <g id="XMLID_400_"> <path id="XMLID_404_" class="st6" d="M461.7,34.6c0.8,0,0.8-1.3,0-1.3C460.9,33.4,460.9,34.6,461.7,34.6L461.7,34.6z"/> </g> </g> <g id="XMLID_268_"> <g id="XMLID_394_"> <path id="XMLID_398_" class="st6" d="M511.5,9.7c0.8,0,0.8-1.3,0-1.3C510.7,8.5,510.7,9.7,511.5,9.7L511.5,9.7z"/> </g> </g> <g id="XMLID_267_"> <g id="XMLID_388_"> <path id="XMLID_392_" class="st6" d="M497.2,52.9c0.8,0,0.8-1.3,0-1.3C496.4,51.7,496.4,52.9,497.2,52.9L497.2,52.9z"/> </g> </g> <g id="XMLID_266_"> <g id="XMLID_382_"> <path id="XMLID_386_" class="st6" d="M564.6,11.6c0.8,0,0.8-1.3,0-1.3C563.8,10.4,563.8,11.6,564.6,11.6L564.6,11.6z"/> </g> </g> <g id="XMLID_265_"> <g id="XMLID_380_"> <path id="XMLID_435_" class="st6" d="M523.2,61.8c1.6,0,1.6-2.5,0-2.5C521.6,59.3,521.6,61.8,523.2,61.8L523.2,61.8z"/> </g> </g> <g id="XMLID_264_"> <g id="XMLID_370_"> <path id="XMLID_374_" class="st6" d="M329.3,129.9c1.6,0,1.6-2.5,0-2.5C327.7,127.4,327.7,129.9,329.3,129.9L329.3,129.9z"/> </g> </g> <g id="XMLID_263_"> <g id="XMLID_364_"> <path id="XMLID_368_" class="st6" d="M516.6,95.1c1.6,0,1.6-2.5,0-2.5C514.9,92.6,514.9,95.1,516.6,95.1L516.6,95.1z"/> </g> </g> <g id="XMLID_262_"> <g id="XMLID_358_"> <path id="XMLID_362_" class="st6" d="M524.3,6.6c1.6,0,1.6-2.5,0-2.5C522.7,4.1,522.7,6.6,524.3,6.6L524.3,6.6z"/> </g> </g> <g id="XMLID_261_"> <g id="XMLID_352_"> <path id="XMLID_356_" class="st6" d="M579.9,12.9c1.6,0,1.6-2.5,0-2.5C578.3,10.4,578.3,12.9,579.9,12.9L579.9,12.9z"/> </g> </g> <g id="XMLID_255_"> <g id="XMLID_346_"> <path id="XMLID_350_" class="st6" d="M192.6,78.3c1.6,0,1.6-2.5,0-2.5C191,75.8,191,78.3,192.6,78.3L192.6,78.3z"/> </g> </g> <g id="XMLID_249_"> <g id="XMLID_340_"> <path id="XMLID_344_" class="st6" d="M180,94c1.6,0,1.6-2.5,0-2.5C178.3,91.5,178.3,94,180,94L180,94z"/> </g> </g> <g id="XMLID_238_"> <g id="XMLID_338_"> <path id="XMLID_628_" class="st6" d="M145.5,94.7c2.4,0,2.4-3.8,0-3.8C143.1,90.9,143.1,94.7,145.5,94.7L145.5,94.7z"/> </g> </g> <g id="XMLID_232_"> <g id="XMLID_332_"> <path id="XMLID_379_" class="st6" d="M542.2,78.2c2.4,0,2.4-3.8,0-3.8C539.8,74.5,539.8,78.2,542.2,78.2L542.2,78.2z"/> </g> </g> <g id="XMLID_34_"> <g id="XMLID_322_"> <path id="XMLID_326_" class="st6" d="M286.5,140.4c2.4,0,2.4-3.8,0-3.8C284.1,136.7,284.1,140.4,286.5,140.4L286.5,140.4z"/> </g> </g> <g id="XMLID_33_"> <g id="XMLID_316_"> <path id="XMLID_320_" class="st6" d="M253,114c2.4,0,2.4-3.8,0-3.8C250.6,110.3,250.5,114,253,114L253,114z"/> </g> </g> <g id="XMLID_32_"> <g id="XMLID_336_"> <path id="XMLID_658_" class="st6" d="M484.9,88.5c2.4,0,2.4-3.8,0-3.8C482.5,84.8,482.5,88.5,484.9,88.5L484.9,88.5z"/> </g> </g> <g id="XMLID_31_"> <g id="XMLID_304_"> <path id="XMLID_308_" class="st6" d="M565.9,46.2c2.4,0,2.4-3.8,0-3.8C563.5,42.5,563.5,46.2,565.9,46.2L565.9,46.2z"/> </g> </g> <g id="XMLID_29_"> <g id="XMLID_298_"> <path id="XMLID_302_" class="st6" d="M579.6,63.3c6.4,0,6.4-10,0-10C573.1,53.3,573.1,63.3,579.6,63.3L579.6,63.3z"/> </g> </g> <g id="XMLID_26_"> <g id="XMLID_296_"> <path id="XMLID_459_" class="st6" d="M516.2,30.6c6.4,0,6.4-10,0-10C509.8,20.6,509.7,30.6,516.2,30.6L516.2,30.6z"/> </g> </g> <g id="XMLID_283_"> <g id="XMLID_481_"> <path id="XMLID_485_" class="st6" d="M448.6,7.5c0.8,0,0.8-1.3,0-1.3C447.8,6.2,447.8,7.5,448.6,7.5L448.6,7.5z"/> </g> </g> <g id="XMLID_282_"> <g id="XMLID_475_"> <path id="XMLID_479_" class="st6" d="M471.2,15.7c2.4,0,2.4-3.8,0-3.8C468.8,12,468.8,15.7,471.2,15.7L471.2,15.7z"/> </g> </g> <g id="XMLID_281_"> <g id="XMLID_469_"> <path id="XMLID_473_" class="st6" d="M360.5,15.7c2.4,0,2.4-3.8,0-3.8C358,12,358,15.7,360.5,15.7L360.5,15.7z"/> </g> </g> <g id="XMLID_285_"> <g id="XMLID_495_"> <path id="XMLID_499_" class="st6" d="M252.5,106.4c0.8,0,0.8-1.3,0-1.3C251.7,105.1,251.7,106.4,252.5,106.4L252.5,106.4z"/> </g> </g> <g id="XMLID_284_"> <g id="XMLID_489_"> <path id="XMLID_493_" class="st6" d="M262.6,168c1.6,0,1.6-2.5,0-2.5C261,165.5,261,168,262.6,168L262.6,168z"/> </g> </g> <g id="XMLID_494_"> <g id="XMLID_565_"> <path id="XMLID_569_" class="st6" d="M499.8,141.9c3.2,0,3.2-5,0-5C496.6,136.9,496.6,141.9,499.8,141.9L499.8,141.9z"/> </g> </g> <g id="XMLID_488_"> <g id="XMLID_559_"> <path id="XMLID_563_" class="st6" d="M479.8,181.9c0.8,0,0.8-1.3,0-1.3C479,180.7,479,181.9,479.8,181.9L479.8,181.9z"/> </g> </g> <g id="XMLID_487_"> <g id="XMLID_553_"> <path id="XMLID_557_" class="st6" d="M573.5,184.5c0.8,0,0.8-1.3,0-1.3C572.7,183.3,572.7,184.5,573.5,184.5L573.5,184.5z"/> </g> </g> <g id="XMLID_486_"> <g id="XMLID_547_"> <path id="XMLID_551_" class="st6" d="M498.8,167.3c0.8,0,0.8-1.3,0-1.3C498,166.1,498,167.3,498.8,167.3L498.8,167.3z"/> </g> </g> <g id="XMLID_468_"> <g id="XMLID_541_"> <path id="XMLID_545_" class="st6" d="M470.4,157.7c0.8,0,0.8-1.3,0-1.3C469.6,156.5,469.6,157.7,470.4,157.7L470.4,157.7z"/> </g> </g> <g id="XMLID_467_"> <g id="XMLID_535_"> <path id="XMLID_539_" class="st6" d="M482.8,154.3c1.6,0,1.6-2.5,0-2.5C481.2,151.8,481.2,154.3,482.8,154.3L482.8,154.3z"/> </g> </g> <g id="XMLID_331_"> <g id="XMLID_529_"> <path id="XMLID_533_" class="st6" d="M573.6,166.8c1.6,0,1.6-2.5,0-2.5C572,164.3,572,166.8,573.6,166.8L573.6,166.8z"/> </g> </g> <g id="XMLID_330_"> <g id="XMLID_523_"> <path id="XMLID_527_" class="st6" d="M568.5,223.3c1.6,0,1.6-2.5,0-2.5C566.8,220.8,566.8,223.3,568.5,223.3L568.5,223.3z"/> </g> </g> <g id="XMLID_329_"> <g id="XMLID_517_"> <path id="XMLID_521_" class="st6" d="M524.3,204.9c2.4,0,2.4-3.8,0-3.8C521.9,201.1,521.9,204.9,524.3,204.9L524.3,204.9z"/> </g> </g> <g id="XMLID_286_"> <g id="XMLID_511_"> <path id="XMLID_515_" class="st6" d="M555.7,163c2.4,0,2.4-3.8,0-3.8C553.2,159.3,553.2,163,555.7,163L555.7,163z"/> </g> </g> <g id="XMLID_579_"> <g id="XMLID_705_"> <path id="XMLID_709_" class="st6" d="M457.7,181.9c0.8,0,0.8-1.3,0-1.3C456.9,180.7,456.9,181.9,457.7,181.9L457.7,181.9z"/> </g> </g> <g id="XMLID_578_"> <g id="XMLID_699_"> <path id="XMLID_703_" class="st6" d="M398.3,32.3c0.8,0,0.8-1.3,0-1.3C397.5,31,397.5,32.3,398.3,32.3L398.3,32.3z"/> </g> </g> <g id="XMLID_577_"> <g id="XMLID_693_"> <path id="XMLID_697_" class="st6" d="M227.5,111.9c0.8,0,0.8-1.3,0-1.3C226.7,110.7,226.7,111.9,227.5,111.9L227.5,111.9z"/> </g> </g> <g id="XMLID_576_"> <g id="XMLID_687_"> <path id="XMLID_691_" class="st6" d="M243.3,154.5c0.8,0,0.8-1.3,0-1.3C242.5,153.3,242.5,154.5,243.3,154.5L243.3,154.5z"/> </g> </g> <g id="XMLID_575_"> <g id="XMLID_681_"> <path id="XMLID_685_" class="st6" d="M249.7,165.7c1.6,0,1.6-2.5,0-2.5C248.1,163.2,248.1,165.7,249.7,165.7L249.7,165.7z"/> </g> </g> <g id="XMLID_574_"> <g id="XMLID_675_"> <path id="XMLID_679_" class="st6" d="M214.9,109.9c1.6,0,1.6-2.5,0-2.5C213.3,107.4,213.3,109.9,214.9,109.9L214.9,109.9z"/> </g> </g> <g id="XMLID_573_"> <g id="XMLID_669_"> <path id="XMLID_673_" class="st6" d="M528.3,121.2c2.4,0,2.4-3.8,0-3.8C525.9,117.5,525.9,121.2,528.3,121.2L528.3,121.2z"/> </g> </g> <g id="XMLID_572_"> <g id="XMLID_663_"> <path id="XMLID_667_" class="st6" d="M405.8,25c2.4,0,2.4-3.8,0-3.8C403.4,21.3,403.4,25,405.8,25L405.8,25z"/> </g> </g> <g id="XMLID_571_"> <g id="XMLID_629_"> <path id="XMLID_639_" class="st6" d="M354.1,45c2.4,0,2.4-3.8,0-3.8C351.6,41.3,351.6,45,354.1,45L354.1,45z"/> </g> </g> <g id="XMLID_570_"> <g id="XMLID_623_"> <path id="XMLID_627_" class="st6" d="M360.5,43.5c0.8,0,0.8-1.3,0-1.3C359.7,42.3,359.7,43.5,360.5,43.5L360.5,43.5z"/> </g> </g> <g id="XMLID_564_"> <g id="XMLID_617_"> <path id="XMLID_621_" class="st6" d="M339.4,49.2c3.2,0,3.2-5,0-5C336.2,44.2,336.2,49.2,339.4,49.2L339.4,49.2z"/> </g> </g> <g id="XMLID_558_"> <g id="XMLID_595_"> <path id="XMLID_615_" class="st6" d="M298.2,25.9c0.8,0,0.8-1.3,0-1.3C297.4,24.7,297.4,25.9,298.2,25.9L298.2,25.9z"/> </g> </g> <g id="XMLID_552_"> <g id="XMLID_633_"> <path id="XMLID_637_" class="st6" d="M385.6,91.5c0.8,0,0.8-1.3,0-1.3C384.8,90.2,384.8,91.5,385.6,91.5L385.6,91.5z"/> </g> </g> <g id="XMLID_546_"> <g id="XMLID_586_"> <path id="XMLID_593_" class="st6" d="M312.1,45.4c0.8,0,0.8-1.3,0-1.3C311.3,44.2,311.3,45.4,312.1,45.4L312.1,45.4z"/> </g> </g> <g id="XMLID_505_"> <g id="XMLID_248_"> <path id="XMLID_259_" class="st6" d="M322.7,17.3c0.8,0,0.8-1.3,0-1.3C321.9,16,321.9,17.3,322.7,17.3L322.7,17.3z"/> </g> </g> <g id="XMLID_504_"> <g id="XMLID_213_"> <path id="XMLID_241_" class="st6" d="M326.3,30.5c1.6,0,1.6-2.5,0-2.5C324.7,28,324.7,30.5,326.3,30.5L326.3,30.5z"/> </g> </g> <g id="XMLID_503_"> <g id="XMLID_609_"> <path id="XMLID_613_" class="st6" d="M385.7,73.8c1.6,0,1.6-2.5,0-2.5C384.1,71.3,384.1,73.8,385.7,73.8L385.7,73.8z"/> </g> </g> <g id="XMLID_502_"> <g id="XMLID_603_"> <path id="XMLID_607_" class="st6" d="M373,89.5c1.6,0,1.6-2.5,0-2.5C371.4,87,371.4,89.5,373,89.5L373,89.5z"/> </g> </g> <g id="XMLID_501_"> <g id="XMLID_597_"> <path id="XMLID_601_" class="st6" d="M457.7,144.7c2.4,0,2.4-3.8,0-3.8C455.3,140.9,455.3,144.7,457.7,144.7L457.7,144.7z"/> </g> </g> <g id="XMLID_500_"> <g id="XMLID_118_"> <path id="XMLID_158_" class="st6" d="M306.4,35c2.4,0,2.4-3.8,0-3.8C304,31.2,304,35,306.4,35L306.4,35z"/> </g> </g> <g id="XMLID_728_"> <g id="XMLID_908_"> <path id="XMLID_912_" class="st6" d="M91.8,43c0.8,0,0.8-1.3,0-1.3C91,41.8,91,43,91.8,43L91.8,43z"/> </g> </g> <g id="XMLID_727_"> <g id="XMLID_902_"> <path id="XMLID_906_" class="st6" d="M165.8,26.4c0.8,0,0.8-1.3,0-1.3C165,25.2,165,26.4,165.8,26.4L165.8,26.4z"/> </g> </g> <g id="XMLID_726_"> <g id="XMLID_896_"> <path id="XMLID_900_" class="st6" d="M137.4,34.5c0.8,0,0.8-1.3,0-1.3C136.6,33.3,136.6,34.5,137.4,34.5L137.4,34.5z"/> </g> </g> <g id="XMLID_725_"> <g id="XMLID_890_"> <path id="XMLID_894_" class="st6" d="M68.2,53.9c0.8,0,0.8-1.3,0-1.3C67.4,52.6,67.4,53.9,68.2,53.9L68.2,53.9z"/> </g> </g> <g id="XMLID_724_"> <g id="XMLID_884_"> <path id="XMLID_888_" class="st6" d="M63.4,42.4c1.6,0,1.6-2.5,0-2.5C61.8,39.9,61.8,42.4,63.4,42.4L63.4,42.4z"/> </g> </g> <g id="XMLID_723_"> <g id="XMLID_878_"> <path id="XMLID_882_" class="st6" d="M147.5,28.1c1.6,0,1.6-2.5,0-2.5C145.9,25.6,145.9,28.1,147.5,28.1L147.5,28.1z"/> </g> </g> <g id="XMLID_722_"> <g id="XMLID_872_"> <path id="XMLID_876_" class="st6" d="M163.9,39.8c1.6,0,1.6-2.5,0-2.5C162.3,37.3,162.3,39.8,163.9,39.8L163.9,39.8z"/> </g> </g> <g id="XMLID_721_"> <g id="XMLID_866_"> <path id="XMLID_870_" class="st6" d="M151.2,13.6c2.4,0,2.4-3.8,0-3.8C148.8,9.8,148.8,13.6,151.2,13.6L151.2,13.6z"/> </g> </g> <g id="XMLID_720_"> <g id="XMLID_860_"> <path id="XMLID_864_" class="st6" d="M144.1,46.8c2.4,0,2.4-3.8,0-3.8C141.7,43.1,141.7,46.8,144.1,46.8L144.1,46.8z"/> </g> </g> <g id="XMLID_718_"> <g id="XMLID_848_"> <path id="XMLID_852_" class="st6" d="M107.6,177.5c6.4,0,6.4-10,0-10C101.2,167.5,101.2,177.5,107.6,177.5L107.6,177.5z"/> </g> </g> <g id="XMLID_716_"> <g id="XMLID_836_"> <path id="XMLID_840_" class="st6" d="M56.5,94.9c1.6,0,1.6-2.5,0-2.5C54.9,92.4,54.9,94.9,56.5,94.9L56.5,94.9z"/> </g> </g> <g id="XMLID_713_"> <g id="XMLID_818_"> <path id="XMLID_822_" class="st6" d="M130.9,127c0.8,0,0.8-1.3,0-1.3C130.1,125.7,130.1,127,130.9,127L130.9,127z"/> </g> </g> <g id="XMLID_712_"> <g id="XMLID_812_"> <path id="XMLID_816_" class="st6" d="M73.2,106.3c0.8,0,0.8-1.3,0-1.3C72.3,105.1,72.3,106.3,73.2,106.3L73.2,106.3z"/> </g> </g> <g id="XMLID_711_"> <g id="XMLID_806_"> <path id="XMLID_810_" class="st6" d="M115.2,108.9c0.8,0,0.8-1.3,0-1.3C114.4,107.6,114.4,108.9,115.2,108.9L115.2,108.9z"/> </g> </g> <g id="XMLID_710_"> <g id="XMLID_800_"> <path id="XMLID_804_" class="st6" d="M54.8,107.9c1.6,0,1.6-2.5,0-2.5C53.2,105.4,53.2,107.9,54.8,107.9L54.8,107.9z"/> </g> </g> <g id="XMLID_704_"> <g id="XMLID_794_"> <path id="XMLID_798_" class="st6" d="M141.7,114.2c1.6,0,1.6-2.5,0-2.5C140.1,111.7,140.1,114.2,141.7,114.2L141.7,114.2z"/> </g> </g> <g id="XMLID_698_"> <g id="XMLID_788_"> <path id="XMLID_792_" class="st6" d="M121.9,121.2c2.4,0,2.4-3.8,0-3.8C119.5,117.5,119.5,121.2,121.9,121.2L121.9,121.2z"/> </g> </g> <g id="XMLID_692_"> <g id="XMLID_782_"> <path id="XMLID_786_" class="st6" d="M120.7,150.9c2.4,0,2.4-3.8,0-3.8C118.3,147.2,118.3,150.9,120.7,150.9L120.7,150.9z"/> </g> </g> <g id="XMLID_686_"> <g id="XMLID_776_"> <path id="XMLID_780_" class="st6" d="M68.2,200.5c3.2,0,3.2-5,0-5C65,195.5,65,200.5,68.2,200.5L68.2,200.5z"/> </g> </g> <g id="XMLID_585_"> <g id="XMLID_770_"> <path id="XMLID_774_" class="st6" d="M11.3,215.3c0.8,0,0.8-1.3,0-1.3C10.5,214,10.5,215.3,11.3,215.3L11.3,215.3z"/> </g> </g> <g id="XMLID_584_"> <g id="XMLID_764_"> <path id="XMLID_768_" class="st6" d="M154.4,173.1c0.8,0,0.8-1.3,0-1.3C153.6,171.9,153.6,173.1,154.4,173.1L154.4,173.1z"/> </g> </g> <g id="XMLID_583_"> <g id="XMLID_758_"> <path id="XMLID_762_" class="st6" d="M149.6,161.6c1.6,0,1.6-2.5,0-2.5C148,159.1,148,161.6,149.6,161.6L149.6,161.6z"/> </g> </g> <g id="XMLID_582_"> <g id="XMLID_752_"> <path id="XMLID_756_" class="st6" d="M21.4,208.8c1.6,0,1.6-2.5,0-2.5C19.8,206.3,19.8,208.8,21.4,208.8L21.4,208.8z"/> </g> </g> <g id="XMLID_581_"> <g id="XMLID_749_"> <path id="XMLID_877_" class="st6" d="M12,184.6c2.4,0,2.4-3.8,0-3.8C9.6,180.9,9.6,184.6,12,184.6L12,184.6z"/> </g> </g> <g id="XMLID_580_"> <g id="XMLID_883_"> <path id="XMLID_907_" class="st6" d="M169.1,156.5c2.4,0,2.4-3.8,0-3.8C166.7,152.8,166.7,156.5,169.1,156.5L169.1,156.5z"/> </g> </g> <g id="XMLID_859_"> <g id="XMLID_978_"> <path id="XMLID_982_" class="st6" d="M282.8,78.7c2.4,0,2.4-3.8,0-3.8C280.3,75,280.3,78.7,282.8,78.7L282.8,78.7z"/> </g> </g> <g id="XMLID_853_"> <g id="XMLID_972_"> <path id="XMLID_976_" class="st6" d="M276.4,78.4c0.8,0,0.8-1.3,0-1.3C275.6,77.1,275.6,78.4,276.4,78.4L276.4,78.4z"/> </g> </g> <g id="XMLID_847_"> <g id="XMLID_966_"> <path id="XMLID_970_" class="st6" d="M394,140.7c1.6,0,1.6-2.5,0-2.5C392.4,138.2,392.4,140.7,394,140.7L394,140.7z"/> </g> </g> <g id="XMLID_841_"> <g id="XMLID_960_"> <path id="XMLID_964_" class="st6" d="M113.2,36.1c3.2,0,3.2-5,0-5C110,31.1,110,36.1,113.2,36.1L113.2,36.1z"/> </g> </g> <g id="XMLID_733_"> <g id="XMLID_948_"> <path id="XMLID_952_" class="st6" d="M467.6,104.7c0.8,0,0.8-1.3,0-1.3C466.8,103.4,466.8,104.7,467.6,104.7L467.6,104.7z"/> </g> </g> <g id="XMLID_732_"> <g id="XMLID_942_"> <path id="XMLID_946_" class="st6" d="M418.1,145.2c1.6,0,1.6-2.5,0-2.5C416.5,142.7,416.5,145.2,418.1,145.2L418.1,145.2z"/> </g> </g> <g id="XMLID_731_"> <g id="XMLID_936_"> <path id="XMLID_940_" class="st6" d="M465.7,118.1c1.6,0,1.6-2.5,0-2.5C464.1,115.6,464.1,118.1,465.7,118.1L465.7,118.1z"/> </g> </g> <g id="XMLID_730_"> <g id="XMLID_930_"> <path id="XMLID_934_" class="st6" d="M414.8,164c2.4,0,2.4-3.8,0-3.8C412.4,160.2,412.4,164,414.8,164L414.8,164z"/> </g> </g> <g id="XMLID_965_"> <g id="XMLID_1034_"> <path id="XMLID_1038_" class="st6" d="M4,150.3c0.8,0,0.8-1.3,0-1.3C3.2,149,3.2,150.3,4,150.3L4,150.3z"/> </g> </g> <g id="XMLID_959_"> <g id="XMLID_1028_"> <path id="XMLID_1032_" class="st6" d="M27.3,160c2.4,0,2.4-3.8,0-3.8C24.9,156.3,24.9,160,27.3,160L27.3,160z"/> </g> </g> <g id="XMLID_918_"> <g id="XMLID_1022_"> <path id="XMLID_1026_" class="st6" d="M28.7,165c0.8,0,0.8-1.3,0-1.3C27.9,163.8,27.9,165,28.7,165L28.7,165z"/> </g> </g> <g id="XMLID_917_"> <g id="XMLID_1016_"> <path id="XMLID_1020_" class="st6" d="M21.5,146.7c3.2,0,3.2-5,0-5C18.3,141.7,18.3,146.7,21.5,146.7L21.5,146.7z"/> </g> </g> <g id="XMLID_916_"> <g id="XMLID_1010_"> <path id="XMLID_1014_" class="st6" d="M42.9,119.7c1.6,0,1.6-2.5,0-2.5C41.3,117.2,41.3,119.7,42.9,119.7L42.9,119.7z"/> </g> </g> <g id="XMLID_915_"> <g id="XMLID_1004_"> <path id="XMLID_1008_" class="st6" d="M52.7,156.3c0.8,0,0.8-1.3,0-1.3C51.9,155,51.9,156.3,52.7,156.3L52.7,156.3z"/> </g> </g> <g id="XMLID_914_"> <g id="XMLID_998_"> <path id="XMLID_1002_" class="st6" d="M71.9,147.8c1.6,0,1.6-2.5,0-2.5C70.3,145.3,70.3,147.8,71.9,147.8L71.9,147.8z"/> </g> </g> <g id="XMLID_913_"> <g id="XMLID_996_"> <path id="XMLID_1033_" class="st6" d="M69.1,127.2c2.4,0,2.4-3.8,0-3.8C66.7,123.5,66.7,127.2,69.1,127.2L69.1,127.2z"/> </g> </g> <g id="XMLID_997_"> <g id="XMLID_1090_"> <path id="XMLID_1094_" class="st6" d="M276.2,44.6c0.8,0,0.8-1.3,0-1.3C275.4,43.3,275.4,44.6,276.2,44.6L276.2,44.6z"/> </g> </g> <g id="XMLID_984_"> <g id="XMLID_1066_"> <path id="XMLID_1070_" class="st6" d="M237.9,51.6c1.6,0,1.6-2.5,0-2.5C236.3,49.1,236.3,51.6,237.9,51.6L237.9,51.6z"/> </g> </g> <g id="XMLID_983_"> <g id="XMLID_1060_"> <path id="XMLID_1064_" class="st6" d="M233.9,19.6c0.8,0,0.8-1.3,0-1.3C233.1,18.4,233.1,19.6,233.9,19.6L233.9,19.6z"/> </g> </g> <g id="XMLID_977_"> <g id="XMLID_1054_"> <path id="XMLID_1058_" class="st6" d="M222.5,14.3c1.6,0,1.6-2.5,0-2.5C220.9,11.8,220.9,14.3,222.5,14.3L222.5,14.3z"/> </g> </g> <g id="XMLID_971_"> <g id="XMLID_1052_"> <path id="XMLID_1089_" class="st6" d="M216.6,35.4c2.4,0,2.4-3.7,0-3.7C214.2,31.7,214.2,35.4,216.6,35.4L216.6,35.4z"/> </g> </g> <g id="XMLID_1009_"> <g id="XMLID_1104_"> <path id="XMLID_1108_" class="st6" d="M516.7,162.6c0.8,0,0.8-1.3,0-1.3C515.9,161.3,515.9,162.6,516.7,162.6L516.7,162.6z"/> </g> </g> <g id="XMLID_1003_"> <g id="XMLID_1098_"> <path id="XMLID_1102_" class="st6" d="M504,186.8c0.8,0,0.8-1.3,0-1.3C503.2,185.5,503.2,186.8,504,186.8L504,186.8z"/> </g> </g> <g id="XMLID_6_"> <g id="XMLID_659_"> <path id="XMLID_986_" class="st6" d="M470.2,62.9c0.8,0,0.8-1.3,0-1.3C469.4,61.6,469.4,62.9,470.2,62.9L470.2,62.9z"/> </g> </g> <g id="XMLID_3_"> <g id="XMLID_652_"> <path id="XMLID_657_" class="st6" d="M448,62.9c0.8,0,0.8-1.3,0-1.3C447.2,61.6,447.2,62.9,448,62.9L448,62.9z"/> </g> </g> <g id="XMLID_2_"> <g id="XMLID_645_"> <path id="XMLID_649_" class="st6" d="M494.4,67.7c0.8,0,0.8-1.3,0-1.3C493.6,66.5,493.6,67.7,494.4,67.7L494.4,67.7z"/> </g> </g> <g id="XMLID_832_"> <g id="XMLID_1121_"> <path id="XMLID_1125_" class="st6" d="M212.8,142.9c0.8,0,0.8-1.3,0-1.3C212,141.6,212,142.9,212.8,142.9L212.8,142.9z"/> </g> </g> <g id="XMLID_831_"> <g id="XMLID_1115_"> <path id="XMLID_1119_" class="st6" d="M197.8,124.2c0.8,0,0.8-1.3,0-1.3C197,123,197,124.2,197.8,124.2L197.8,124.2z"/> </g> </g> <g id="XMLID_828_"> <g id="XMLID_1109_"> <path id="XMLID_1113_" class="st6" d="M195.3,121c2.4,0,2.4-3.8,0-3.8C192.9,117.2,192.9,121,195.3,121L195.3,121z"/> </g> </g> <g id="XMLID_825_"> <g id="XMLID_1087_"> <path id="XMLID_1097_" class="st6" d="M201.8,166.5c2.4,0,2.4-3.8,0-3.8C199.4,162.7,199.4,166.5,201.8,166.5L201.8,166.5z"/> </g> </g> <g id="XMLID_769_"> <g id="XMLID_1080_"> <path id="XMLID_1085_" class="st6" d="M166.2,145.9c0.8,0,0.8-1.3,0-1.3C165.3,144.7,165.3,145.9,166.2,145.9L166.2,145.9z"/> </g> </g> <g id="XMLID_751_"> <g id="XMLID_1073_"> <path id="XMLID_1078_" class="st6" d="M166.2,128.2c1.6,0,1.6-2.5,0-2.5C164.6,125.7,164.6,128.2,166.2,128.2L166.2,128.2z"/> </g> </g> <g id="XMLID_734_"> <g id="XMLID_1047_"> <path id="XMLID_1053_" class="st6" d="M248.1,159.1c0.8,0,0.8-1.3,0-1.3C247.3,157.9,247.3,159.1,248.1,159.1L248.1,159.1z"/> </g> </g> <g id="XMLID_729_"> <g id="XMLID_958_"> <path id="XMLID_1041_" class="st6" d="M227.5,163.2c1.6,0,1.6-2.5,0-2.5C225.9,160.7,225.9,163.2,227.5,163.2L227.5,163.2z"/> </g> </g> <g id="XMLID_714_"> <g id="XMLID_928_"> <path id="XMLID_956_" class="st6" d="M250.7,117.3c0.8,0,0.8-1.3,0-1.3C249.9,116.1,249.9,117.3,250.7,117.3L250.7,117.3z"/> </g> </g> <g id="XMLID_5_"> <g id="XMLID_858_"> <path id="XMLID_926_" class="st6" d="M228.6,117.3c0.8,0,0.8-1.3,0-1.3C227.7,116.1,227.7,117.3,228.6,117.3L228.6,117.3z"/> </g> </g> <g id="XMLID_1120_"> <g id="XMLID_1191_"> <path id="XMLID_1195_" class="st6" d="M373.4,144.7c0.8,0,0.8-1.3,0-1.3C372.6,143.5,372.6,144.7,373.4,144.7L373.4,144.7z"/> </g> </g> <g id="XMLID_1114_"> <g id="XMLID_1185_"> <path id="XMLID_1189_" class="st6" d="M395.6,135.8c0.8,0,0.8-1.3,0-1.3C394.8,134.5,394.8,135.8,395.6,135.8L395.6,135.8z"/> </g> </g> <g id="XMLID_1103_"> <g id="XMLID_1179_"> <path id="XMLID_1183_" class="st6" d="M400.6,135.9c2.4,0,2.4-3.8,0-3.8C398.2,132.2,398.2,135.9,400.6,135.9L400.6,135.9z"/> </g> </g> <g id="XMLID_1086_"> <g id="XMLID_1173_"> <path id="XMLID_1177_" class="st6" d="M355.2,129c2.4,0,2.4-3.7,0-3.7C352.8,125.2,352.8,129,355.2,129L355.2,129z"/> </g> </g> <g id="XMLID_845_"> <g id="XMLID_1167_"> <path id="XMLID_1171_" class="st6" d="M384,99.2c0.8,0,0.8-1.3,0-1.3C383.2,97.9,383.2,99.2,384,99.2L384,99.2z"/> </g> </g> <g id="XMLID_844_"> <g id="XMLID_1161_"> <path id="XMLID_1165_" class="st6" d="M401.5,105.2c1.6,0,1.6-2.5,0-2.5C399.9,102.7,399.9,105.2,401.5,105.2L401.5,105.2z"/> </g> </g> <g id="XMLID_843_"> <g id="XMLID_1155_"> <path id="XMLID_1159_" class="st6" d="M347.6,173.8c0.8,0,0.8-1.3,0-1.3C346.8,172.5,346.8,173.8,347.6,173.8L347.6,173.8z"/> </g> </g> <g id="XMLID_842_"> <g id="XMLID_1149_"> <path id="XMLID_1153_" class="st6" d="M336,168.9c1.6,0,1.6-2.5,0-2.5C334.4,166.4,334.3,168.9,336,168.9L336,168.9z"/> </g> </g> <g id="XMLID_834_"> <g id="XMLID_1143_"> <path id="XMLID_1147_" class="st6" d="M386.9,188.4c0.8,0,0.8-1.3,0-1.3C386.1,187.1,386.1,188.4,386.9,188.4L386.9,188.4z"/> </g> </g> <g id="XMLID_833_"> <g id="XMLID_1141_"> <path id="XMLID_1190_" class="st6" d="M393.3,167.2c0.8,0,0.8-1.3,0-1.3C392.5,165.9,392.5,167.2,393.3,167.2L393.3,167.2z"/> </g> </g> <g id="XMLID_1166_"> <g id="XMLID_1261_"> <path id="XMLID_1265_" class="st6" d="M572.8,122.5c0.8,0,0.8-1.3,0-1.3C572,121.3,572,122.5,572.8,122.5L572.8,122.5z"/> </g> </g> <g id="XMLID_1160_"> <g id="XMLID_1255_"> <path id="XMLID_1259_" class="st6" d="M557.8,103.9c0.8,0,0.8-1.3,0-1.3C557,102.6,557,103.9,557.8,103.9L557.8,103.9z"/> </g> </g> <g id="XMLID_1154_"> <g id="XMLID_1249_"> <path id="XMLID_1253_" class="st6" d="M555.4,100.6c2.4,0,2.4-3.8,0-3.8C552.9,96.9,552.9,100.6,555.4,100.6L555.4,100.6z"/> </g> </g> <g id="XMLID_1148_"> <g id="XMLID_1243_"> <path id="XMLID_1247_" class="st6" d="M561.8,146.1c2.4,0,2.4-3.8,0-3.8C559.4,142.4,559.4,146.1,561.8,146.1L561.8,146.1z"/> </g> </g> <g id="XMLID_1131_"> <g id="XMLID_1237_"> <path id="XMLID_1241_" class="st6" d="M526.2,125.6c0.8,0,0.8-1.3,0-1.3C525.4,124.3,525.4,125.6,526.2,125.6L526.2,125.6z"/> </g> </g> <g id="XMLID_1130_"> <g id="XMLID_1231_"> <path id="XMLID_1235_" class="st6" d="M526.2,107.8c1.6,0,1.6-2.5,0-2.5C524.6,105.3,524.6,107.8,526.2,107.8L526.2,107.8z"/> </g> </g> <g id="XMLID_1129_"> <g id="XMLID_1225_"> <path id="XMLID_1229_" class="st6" d="M445,67.5c0.8,0,0.8-1.3,0-1.3C444.2,66.2,444.2,67.5,445,67.5L445,67.5z"/> </g> </g> <g id="XMLID_1128_"> <g id="XMLID_1219_"> <path id="XMLID_1223_" class="st6" d="M443.1,80.9c1.6,0,1.6-2.5,0-2.5C441.5,78.4,441.5,80.9,443.1,80.9L443.1,80.9z"/> </g> </g> <g id="XMLID_1127_"> <g id="XMLID_1213_"> <path id="XMLID_1217_" class="st6" d="M447.6,25.7c0.8,0,0.8-1.3,0-1.3C446.8,24.4,446.8,25.7,447.6,25.7L447.6,25.7z"/> </g> </g> <g id="XMLID_1126_"> <g id="XMLID_1207_"> <path id="XMLID_1211_" class="st6" d="M588.6,96.9c0.8,0,0.8-1.3,0-1.3C587.8,95.7,587.8,96.9,588.6,96.9L588.6,96.9z"/> </g> </g> <path id="XMLID_1197_" class="st7" d="M297.6,841.9c0,0,8.4-19.5,18.4-9.7c10,9.7,9-16.4,9-16.4l7,13.1v-13.1c0,0,1,7.7,14,0c13-7.7,16-44.9,22-31.8s6,13.1,6,13.1s1-23,0-29.6c-1-6.6,15,25.2,16,21.9S380,739,380,739s7,11.4,14,19.4c7,8,10,11.7,10,0c0-11.7,12,0,12,0s4.1-2.6,5-12.6s11-3.5,14-1.3c3,2.2,13.7-3.3,10.4-11c-3.4-7.7-8.4-42.7,6.6-21.9c15,20.8,20,9.9,20,9.9l-9-31.8l9,9.9v-9.9c0,0,13,9.9,12,5.5s6-28.5,6-28.5l14,29.6l-1-57l10,35.6v-14.8l15.3,14.7c0,0,3-20-2.2-27.2c-5.2-7.2,21.7,12,21.9,8.1c1-20.8-3-44.9,5-32.9s13,30.7,13,24.1c0-6.6-6-49.3-6-49.3l20,42.7l5.4-52.6c0,0,9.9,21.9,9.9,36.2c0,14.2,0,217.9,0,217.9H297.6z"/> <path id="XMLID_1198_" class="st0" d="M314,841.3c0,0,8,7.3,15,0s10-14.7,10-14.7h7l15-11.1l8,6.2l5-30.8l13,17.3l10-17.3h9v-24.7c0,0,17.3,4.9,17.2,0c-0.2-4.9,6.8-18.9,6.8-18.9l5-15.6l12.7,15.6l9.3-15.6l15-25.9l12,23.4l7-39.4l13-12.3l10,7.4l10.2-36l12,13.6l5.1-32.7l14.7,18.1l7-18.1l10,8.2l7.7-31l10.3,6.3l4.3-17.3v245.2H314z"/> <path id="XMLID_1199_" class="st8" d="M329,841.9l7.1-35.8l15.5,19.1l16.5-40.5l13.7,28.6l10.8-63.8l22.6,46.2l12.9-26.2l15.8,16.8v-47.6l13.9,23.1c0,0-10.3-45.6,4.8-35.5c15.1,10.2,25.8,24.2,25.8,24.2v-69l26.3,38.4l-12.3-76.8l29.3,54.7l18.1-66.3l14,44.2l5.4-72.9c0,0,9.4,61.3,15.5,52.9c6-8.4,10.7-52.9,10.7-52.9v239H334.4"/> <g id="XMLID_1200_"> <g id="XMLID_1280_"> <path id="XMLID_1284_" class="st9" d="M210.4,793c1.4,13.8,1.1,27.6-1.1,41.3c-0.5,3.1,4.3,4.5,4.8,1.3c2.2-14.2,2.7-28.4,1.2-42.6C215.1,789.8,210.1,789.8,210.4,793L210.4,793z"/> </g> </g> <g id="XMLID_1201_"> <g id="XMLID_1287_"> <path id="XMLID_1291_" class="st9" d="M218,837.5c-3.2,0.4-9.5,0.1-9.3-4.1c0.1-1.7,1.5-3.9,1.7-5.7c0.7-4.9-0.6-11.1,3.4-14.8c-1.4-0.4-2.8-0.7-4.2-1.1c2.8,6.8,1.7,14.2-3.3,19.8c1-0.1,2-0.3,3-0.4c0.6-1.8,1.3-3.7,1.9-5.5c3.1,0.5,4.5-4.4,1.3-4.8c-9.1-1.3-13.7,9.4-5.8,14.7c0.9,0.6,2.3,0.4,3-0.4c6.1-6.7,8-16.1,4.6-24.6c-0.7-1.7-2.7-2.5-4.2-1.1c-6.1,5.7-3.5,15-6.2,22.1c-3.1,8.1,7.4,11.7,14,10.9C221.1,842.1,221.2,837.1,218,837.5L218,837.5z"/> </g> </g> <g id="XMLID_1242_"> <g id="XMLID_1294_"> <path id="XMLID_1298_" class="st9" d="M222,835.2c-5.5,0.5-11,1.1-16.4,1.6c-2.4,0.2-3.5,3.3-1.3,4.7c5.7,3.5,13.3-0.9,13.4-7.5c0-3.2-5-3.2-5,0c0,2.9-3.5,4.6-5.9,3.2c-0.4,1.6-0.8,3.1-1.3,4.7c5.5-0.5,11-1.1,16.4-1.6C225.1,839.9,225.2,834.9,222,835.2L222,835.2z"/> </g> </g> <path id="XMLID_1254_" class="st8" d="M-27.1,208.1"/> <path id="cloud1" class="st0 cloud" d="M572.1,203.9c-30.1-1.7-36.1,30.3-36.1,30.3c-12.8-0.7-22.6,13.8-22.6,13.8c-9.8-1.6-23.3,10.3-23.3,10.3s-10.5-2-21.1,0s-15.8,9.8-15.8,9.8c-24.8-1.6-25.6,15.6-30.9,14.9c-5.3-0.7-7.5,5.5-7.5,5.5h180.5v-84.6L572.1,203.9z"/> <path id="cloud2" class="st2 cloud" d="M585.7,538.4H336c0,0,2.6-8.2,6.2-6.6c3.5,1.6,7.9-20.5,27.3-14.7c0,0,12.3-17.2,30.8-12.3c0,0,22-18.2,46.6-0.9c0,0,18.5-0.8,22.9,5.8c0,0,1.8-1.6,7.9-1.6s2.6-21.3,27.3-22.1c0,0,8.8-8.2,22.9-5.7c0,0,8.8-10.8,24.6-0.5c0,0,6.7-22.5,33.3-22.5V538.4z"/> <path id="cloud3" class="st4 cloud" d="M594.4,546.1H393c0,0,2.1-6.7,5-5.4c2.8,1.3,6.4-16.7,22-12c0,0,9.9-14,24.8-10c0,0,17.7-14.8,37.6-0.7c0,0,14.9-0.6,18.4,4.7c0,0,1.4-1.3,6.4-1.3c5,0,2.1-17.3,22-18c0,0,7.1-6.7,18.4-4.7c0,0,7.1-8.7,19.9-0.4c0,0,5.4-18.3,26.8-18.3V546.1z"/> <path id="cloud4" class="st5 cloud" d="M0,659.9h161.2c0,0,0.8-11.2-12.8-9.4c0,0-13.5-26.1-42.1-17.2c0,0-8.3-19.3-45.9-13.5c0,0-15.8-18.2-36.1-15c0,0-10.1-13.9-24.2-12V659.9z"/> <path id="XMLID_1196_" class="st9" d="M214,785l20,36l8,20.9h-28V785l-21.4,17l-8.6-17l-20-70.1c0,0-26.9,72.1-27,68.1c0-4-21-41.1-21-41.1L91,758l-30-82.2l-3,44.5L15,666L0,618v223.9h208.4"/> <polygon id="XMLID_1248_" class="st0" points="0,650 9.9,638 33.6,689.5 49,714.9 68,739 85.1,741.9 85.1,772 111,753 121,765.7 128,763.8 151.2,793 160,744 177,802 192.6,779 212,811.2 222,814 242,841.9 0,841.9 "/> <path id="XMLID_1260_" class="st8" d="M0,674l15,22.8L29.3,670L49,729.9l2.6-39.6L78,765.7l15-35.7c0,0,24,66.1,24,63.1c0-3,27.1-110,27.1-110l7.1,119l26.8-20l14.6,29.2L222,814l8,29L0,841.9V674z"/> <path id="cloudsm" class="st3 cloud" d="M514.9,639.4h-94.8c0,0,1-2.7,2.3-2.1c1.3,0.5,3-6.6,10.4-4.8c0,0,4.7-5.6,11.7-4c0,0,8.3-5.9,17.7-0.3c0,0,7-0.2,8.7,1.9c0,0,0.7-0.5,3-0.5s1-6.9,10.4-7.2c0,0,3.3-2.7,8.7-1.9c0,0,3.3-3.5,9.3-0.1c0,0,2.5-7.3,12.6-7.3V639.4z"/> </g> <g id="light"> <polyline id="nozzle" class="st5" points="281.4,268.1 230.3,739.9 359,739.9 295.9,268.1 "/> <g id="XMLID_339_"></g> <g id="XMLID_1306_"></g> <g id="XMLID_1315_"></g> <g id="XMLID_1321_"></g> <g id="XMLID_1323_"></g> <g id="XMLID_1328_"></g> </g> <g id="rocket"> <g id="rocket"> <polygon id="XMLID_1345_" class="st10" points="343.8,280.2 341,273.4 341,262.2 342.4,267.3 "/> <path id="XMLID_1353_" class="st5" d="M291.5,207.8c-2.8,2.7-5.7,0-5.7,0c-1.6,5.1-8.9,25.9-8.9,25.9l2.3,28.9h18.9l2.3-28.9C300.4,233.7,293,213,291.5,207.8z M291,222.7l-2.5,0h-0.1l-2.2,0l-3.6,5.3l2.2-6.8l3.7-4.3h0.4l3.7,4.3l2.2,6.8L291,222.7z"/> <polygon id="XMLID_1324_" class="st11" points="311,247.9 298.1,262.7 300.4,233.7 "/> <path id="XMLID_1326_" class="st11" d="M291.5,207.8c-2.8,2.7-5.7,0-5.7,0c0.1-0.3,0.2-0.5,0.2-0.7c0.9-3.1,2.6-3.1,2.6-3.1l0.2,0c0,0,1.6-0.1,2.4,3.1C291.3,207.3,291.4,207.6,291.5,207.8z"/> <polygon id="XMLID_1343_" class="st11" points="279.2,262.7 266.3,247.9 276.9,233.7 "/> <polygon id="XMLID_1325_" class="st8" points="341,262.2 341,273.4 298.1,262.7 311,247.9 "/> <polygon id="XMLID_1341_" class="st8" points="279.2,262.7 236.3,273.4 236.3,262.2 266.3,247.9 "/> <polygon id="XMLID_1344_" class="st10" points="236.3,262.2 236.3,273.4 233.5,280.2 234.9,267.3 "/> <path id="XMLID_1342_" class="st5" d="M298.1,262.7c0,0-1.9,4.7-2.2,5.5c-1.1,2.8-1.8,2.2-7.1,2.4h-0.3c-5.3-0.2-6.1,0.4-7.2-2.4c-0.3-0.8-2.2-5.5-2.2-5.5H298.1z"/> <polygon id="XMLID_1327_" class="st8" points="294.7,228 291,222.7 288.5,222.7 288.4,222.7 286.2,222.7 282.6,228 284.8,221.2 288.4,217 288.8,217 292.5,221.2 "/> <line id="XMLID_1318_" class="st12" x1="291.5" y1="207.8" x2="291.5" y2="207.8"/> <g id="XMLID_1311_"> <path id="XMLID_1379_" class="st13" d="M298.9,267.1c-0.3-1.7-4.4-3.8-4.9-4.1v0c0-1.4,0-3.4,0.1-5.6c0.5,0.7,3.4,4.6,4,5.6C298.6,264,298.9,267.1,298.9,267.1z"/> <path id="XMLID_1372_" class="st0" d="M294,257.4c0,2.2,0,4.2-0.1,5.6v0c0,1.1,0,1.8,0,1.8h-5.2l-0.2,0h-5.2c0,0,0-0.7,0-1.8c0,0,0,0,0,0c0-1.4,0-3.4,0-5.6c0-4.2,0-9.3,0.1-12.2h10.7C294,248.1,294,253.2,294,257.4z"/> <path id="XMLID_1373_" class="st13" d="M293.9,245.2h-10.6c0-0.1,0-0.2,0-0.3c0.2-6.2,5.3-5.9,5.3-5.9l0.2,0c0,0,4.9-0.5,5.1,5.9C293.9,245,293.9,245.1,293.9,245.2z"/> <path id="XMLID_1377_" class="st13" d="M283.3,263C283.3,263,283.3,263,283.3,263c-0.5,0.3-4.6,2.4-4.9,4.1c0,0,0.2-3.1,0.9-4.1c0.6-0.9,3.5-4.9,4-5.6C283.3,259.6,283.3,261.6,283.3,263z"/> <path id="XMLID_1299_" class="st12" d="M283.3,257.4"/> <path id="XMLID_1308_" class="st12" d="M294,245.2"/> <path id="XMLID_1302_" class="st12" d="M283.3,245.2"/> <polygon id="XMLID_1375_" class="st14" points="293,264.8 292.5,265.7 288.6,265.7 288.4,265.7 284.7,265.7 284.2,264.8 288.5,264.8 288.7,264.8 "/> </g> </g> </g> </g> </svg>