<?xml version="1.0" encoding="utf-8"?>
<!-- Svg Vector Icons : http://www.onlinewebfonts.com/icon -->
<!DOCTYPE svg PUBLIC "-//W3C//DTD SVG 1.1//EN" "http://www.w3.org/Graphics/SVG/1.1/DTD/svg11.dtd">
<svg version="1.1" xmlns="http://www.w3.org/2000/svg" xmlns:xlink="http://www.w3.org/1999/xlink" x="0px" y="0px" viewBox="0 0 1000 1000" enable-background="new 0 0 1000 1000" xml:space="preserve">
<metadata> Svg Vector Icons : http://www.onlinewebfonts.com/icon </metadata>
<g><g id="_x35_151e0c8492e5103c096af88a51e96d3"><path d="M38,627.8c-7.8,0-14.4,2.8-19.8,8.4c-5.4,5.6-8.1,12.4-8.1,20.3c0,7.8,2.7,14.5,8.1,20.2c5.4,5.7,12,8.5,19.8,8.5c8,0,14.8-2.9,20.4-8.5c5.6-5.7,8.4-12.4,8.4-20.2c0-7.8-2.8-14.6-8.4-20.2C52.7,630.6,45.9,627.8,38,627.8z M380.2,571.6c0,25.3,0.9,43.2,2.6,53.6h-1c-2.5-4.9-7.5-13-14.8-24.4L184.4,314.7h-55.5v364.7h42.7V415.9c0-25.6-0.7-42.3-2-50.1h1.5c3.2,8.3,7,15.9,11.4,22.9l188.2,290.7h51.9V314.7h-42.5V571.6z M546.2,513.3H678v-38.7H546.2V353.4h142.2v-38.7H503.5v364.7h193.3v-38.7H546.2V513.3L546.2,513.3z M736.9,353.4h105.3v326.1h42.7V353.4H990v-38.7H736.9V353.4z"/></g></g>
</svg>