<svg xmlns="http://www.w3.org/2000/svg" xmlns:xlink="http://www.w3.org/1999/xlink" viewBox="0 0 72 81"><use xlink:href="#a" x=".5" y=".5"/><symbol id="a" overflow="visible"><g fill-rule="nonzero" stroke="none"><path fill="#5294cf" d="M45.825 80h.973l15.878-7.94.264-.374V8.309l-.264-.375L46.798 0h-.985z"/><path fill="#1f5b98" d="M25.162 80h-.986L8.311 72.06l-.322-.554-.163-62.875.485-.698L24.176 0h.999z"/><path fill="#2d72b8" d="M24.204 0h22.579v80H24.204z"/><path fill="#1a476f" d="m70.988 38.202-.537-.119-7.661-.714-.114.057-15.892-.636h-22.58l-15.893.636V25.307l-.017.009.017-.035 15.893-3.682h22.58l15.892 3.682 5.842 3.105v-1.997l2.469-.27-.256-.499-7.818-5.59-.238.077-15.892-4.924h-22.58L8.311 20.108V7.933L0 17.67v8.504l.064-.047 2.405.262v2.038L0 29.748v8.461l.064-.007 2.405.035v3.551l-2.075.031L0 41.782v8.464l2.469 1.328v2.061l-2.366.261L0 53.819v8.502l8.311 9.738V59.886l15.893 4.924h22.58l15.939-4.939.212.093 7.715-5.508.338-.549-2.469-.272v-2.02l-.324-.129-5.281 2.846-.191.399-15.939 3.661v.004h-22.58v-.004L8.311 54.717V42.554l15.893.633v.016h22.58l15.892-.649.362.166 7.426-.639.524-.256-2.469-.035v-3.551l2.469-.035"/><path fill="#2d72b8" d="M62.676 59.886V72.06l8.311-9.738v-8.447l-8.263 5.997zm0-5.142.048-.011 8.263-4.445V41.79l-8.311.765zm.048-29.454-.048-.011v12.146l8.311.777v-8.495l-8.263-4.416m0-5.137 8.263 5.964v-8.447l-8.311-9.739v12.175l.048.017v.031"/></g></symbol></svg>
