<?xml version="1.0" encoding="utf-8"?>
<!-- Generator: Adobe Illustrator 22.0.1, SVG Export Plug-In . SVG Version: 6.00 Build 0)  -->
<svg version="1.1" id="Layer_1" xmlns="http://www.w3.org/2000/svg" xmlns:xlink="http://www.w3.org/1999/xlink" x="0px" y="0px"
	 viewBox="0 0 512 512" style="enable-background:new 0 0 512 512;" xml:space="preserve">
<style type="text/css">
	.st0{fill:#3880FF;}
</style>
<g>
	<g>
		<path class="st0" d="M111.8,222.5c-18.5,0-33.5,15-33.5,33.5s15,33.5,33.5,33.5s33.5-15,33.5-33.5
			C145.2,237.5,130.2,222.5,111.8,222.5z"/>
		<g>
			<circle class="st0" cx="159.8" cy="210.2" r="15.3"/>
		</g>
		<path class="st0" d="M178.6,225.5l-0.6-1.4l-1,1.2c-2.5,2.8-5.7,5-9.2,6.3l-1,0.4l0.4,1c3.1,7.3,4.6,15.1,4.6,23
			c0,33.1-26.9,60.1-60.1,60.1s-60-27-60-60.1s26.9-60.1,60.1-60.1c9,0,17.6,2,25.7,5.8l0.9,0.4l0.4-1c1.5-3.5,3.8-6.5,6.8-8.9
			l1.2-1l-1.4-0.7c-10.5-5.4-21.8-8.2-33.7-8.2c-40.5,0-73.5,33-73.5,73.5s33,73.5,73.5,73.5s73.5-33,73.5-73.5
			C185.2,245.4,183,235.2,178.6,225.5z"/>
	</g>
	<g>
		<g>
			<rect x="223.1" y="224" class="st0" width="15.5" height="64"/>
		</g>
		<g>
			<rect x="390.4" y="224" class="st0" width="15.5" height="64"/>
		</g>
		<path class="st0" d="M354.6,222.5c-10.9,0-19.3,6.6-21.2,8.4l0,0l-1-6.9h-12.9v64H335l0,0v-38.7c0-7.6,10.3-13.8,17.9-13.8
			c7.4,0,13.2,7.2,13.2,15.8V288h15.5v-35.2C381.5,236,374.2,222.5,354.6,222.5z"/>
		<path class="st0" d="M446.5,276.4c-11.7,0-19.4-9.1-19.4-20.4s7.7-20.4,19.4-20.4c9.9,0,16,9.6,16,9.6l11.2-7.5
			c-3.2-5-7-8-12.1-11.1c-3.8-2.3-8.9-4.2-14.6-4.2c-19.4,0-34.2,14.6-34.3,33.5c0.1,18.9,14.9,33.5,34.3,33.5
			c5.7,0,10.8-1.9,14.6-4.2c5.1-3.1,8.9-6.1,12.1-11.1l-11.2-7.5C462.5,266.7,456.5,276.4,446.5,276.4z"/>
		<path id="path3000_1_" class="st0" d="M279,222.5c-19.5,0-33.5,15.3-33.5,33.2c0,18.2,13.6,33.8,33.8,33.8
			c18.3,0,33.2-14,33.2-33.4C312.5,233.9,295.1,222.5,279,222.5L279,222.5z M279.2,235.7c9.6,0,18.7,7.8,18.7,20.4
			c0,12.3-9.1,20.3-18.8,20.3c-10.6,0-19-8.6-19-20.4C260.1,244.3,268.4,235.7,279.2,235.7L279.2,235.7z"/>
	</g>
</g>
</svg>
