<svg xmlns="http://www.w3.org/2000/svg" width="800" height="800" preserveAspectRatio="xMinYMin meet" viewBox="0 -18 256 256"><path fill="#912626" d="M245.97 168.94c-13.66 7.12-84.43 36.22-99.5 44.08s-23.44 7.78-35.34 2.09S23.9 179 10.35 172.5C3.57 169.27 0 166.54 0 163.95v-25.87s98.05-21.35 113.88-27.03 21.32-5.88 34.79-.95c13.47 4.94 94.02 19.47 107.33 24.34v25.51c0 2.56-3.08 5.37-10.03 9"/><path fill="#c6302b" d="M245.97 143.22c-13.67 7.12-84.44 36.22-99.5 44.07s-23.44 7.78-35.34 2.1c-11.9-5.7-87.21-36.12-100.78-42.6s-13.85-10.95-.53-16.17 88.23-34.6 104.06-40.28 21.32-5.89 34.79-.95 83.82 32.94 97.13 37.81 13.83 8.9.16 16.02"/><path fill="#912626" d="M245.97 127.07c-13.66 7.13-84.43 36.22-99.5 44.08s-23.44 7.78-35.34 2.09-87.22-36.11-100.78-42.6C3.57 127.4 0 124.67 0 122.1V96.2s98.05-21.35 113.88-27.03 21.32-5.88 34.79-.95C162.14 73.17 242.69 87.7 256 92.57v25.52c0 2.55-3.08 5.36-10.03 8.98"/><path fill="#c6302b" d="M245.97 101.35c-13.67 7.12-84.44 36.22-99.5 44.08s-23.44 7.77-35.34 2.08-87.21-36.1-100.78-42.6C-3.22 98.45-3.5 93.98 9.82 88.76s88.23-34.6 104.06-40.28 21.32-5.88 34.79-.95 83.82 32.93 97.13 37.81 13.83 8.9.16 16.02"/><path fill="#912626" d="M245.97 83.65c-13.66 7.12-84.43 36.22-99.5 44.08s-23.44 7.78-35.34 2.09S23.9 93.7 10.35 87.22C3.57 83.98 0 81.25 0 78.67V52.79s98.05-21.35 113.88-27.03 21.32-5.88 34.79-.95c13.47 4.94 94.02 19.47 107.33 24.35v25.5c0 2.56-3.08 5.37-10.03 9"/><path fill="#c6302b" d="M245.97 57.93c-13.67 7.12-84.44 36.22-99.5 44.07s-23.44 7.78-35.34 2.1c-11.9-5.7-87.21-36.12-100.78-42.6S-3.5 50.55 9.82 45.33s88.23-34.6 104.06-40.28 21.32-5.88 34.79-.95c13.47 4.94 83.82 32.94 97.13 37.81s13.83 8.9.16 16.02"/><path fill="#fff" d="m159.28 32.76-22 2.28-4.93 11.86-7.96-13.23-25.42-2.29 18.97-6.83-5.7-10.5L130 20.99l16.74-5.48-4.52 10.86zm-28.25 57.52L89.96 73.24l58.86-9.04zM74.08 39.35c17.38 0 31.46 5.46 31.46 12.2S91.46 63.73 74.08 63.73s-31.46-5.46-31.46-12.2 14.09-12.2 31.46-12.2"/><path fill="#621b1c" d="m185.3 36 34.83 13.76-34.8 13.76z"/><path fill="#9a2928" d="M146.76 51.24 185.3 36l.02 27.52-3.77 1.48z"/></svg>
