<svg xmlns="http://www.w3.org/2000/svg" width="722.85" height="701.97"><path d="M365.31 184.81a46.72 46.34 0 0 0-17.9 4.53L103.06 306.1a46.72 46.34 0 0 0-25.28 31.44L17.5 599.78a46.72 46.34 0 0 0 6.34 35.53A46.72 46.34 0 0 0 26.5 639l169.13 210.28a46.72 46.34 0 0 0 36.53 17.44l271.22-.06a46.72 46.34 0 0 0 36.53-17.41l169.06-210.31a46.72 46.34 0 0 0 9.03-39.22l-60.37-262.25a46.72 46.34 0 0 0-25.29-31.44L387.97 189.34a46.72 46.34 0 0 0-22.66-4.53z" style="fill:#326ce5;fill-opacity:1;stroke:#fff;stroke-width:0;stroke-miterlimit:4;stroke-opacity:1;stroke-dasharray:none" transform="translate(-6.33 -174.75)"/><path d="M367.73 274.06c-8.07 0-14.62 7.28-14.62 16.25q.01.2.03.4c-.01 1.23-.07 2.7-.03 3.76.2 5.17 1.32 9.13 2 13.9 1.23 10.2 2.26 18.67 1.62 26.53-.62 2.97-2.8 5.68-4.75 7.57l-.34 6.18q-13.18 1.08-26.44 4.07a188 188 0 0 0-95.56 54.59c-1.62-1.1-4.44-3.13-5.28-3.75-2.61.35-5.25 1.16-8.69-.84-6.54-4.41-12.5-10.5-19.72-17.82-3.3-3.5-5.7-6.84-9.62-10.22-.9-.76-2.26-1.8-3.25-2.59a17.4 17.4 0 0 0-10.19-3.84 14.1 14.1 0 0 0-11.66 5.15c-5.03 6.32-3.42 15.97 3.6 21.57l.22.15c.96.78 2.14 1.79 3.03 2.44 4.16 3.08 7.97 4.65 12.12 7.1 8.75 5.4 16 9.87 21.75 15.27 2.25 2.4 2.64 6.62 2.94 8.44l4.69 4.19a189.3 189.3 0 0 0-29.85 131.94l-6.12 1.78c-1.62 2.08-3.9 5.36-6.28 6.34-7.53 2.37-16 3.24-26.22 4.31-4.8.4-8.94.17-14.03 1.13-1.12.21-2.68.62-3.9.9l-.13.04-.22.06c-8.62 2.08-14.16 10-12.38 17.81 1.79 7.81 10.2 12.56 18.88 10.69l.22-.03q.14-.04.28-.1c1.2-.26 2.72-.56 3.78-.84 5-1.34 8.63-3.3 13.12-5.03 9.68-3.47 17.7-6.37 25.5-7.5 3.26-.26 6.7 2.01 8.41 2.97l6.37-1.1a190.3 190.3 0 0 0 84.35 105.32l-2.66 6.37c.96 2.48 2.02 5.83 1.3 8.27-2.84 7.36-7.7 15.13-13.24 23.8-2.68 4-5.42 7.1-7.84 11.68-.58 1.1-1.32 2.78-1.87 3.94-3.76 8.04-1 17.3 6.21 20.78 7.27 3.5 16.29-.19 20.2-8.25l.02-.03v-.03c.56-1.14 1.35-2.65 1.82-3.72 2.07-4.75 2.76-8.82 4.21-13.4 3.87-9.73 6-19.93 11.33-26.28 1.46-1.74 3.83-2.41 6.3-3.07l3.31-6a189 189 0 0 0 134.97.34c.93 1.65 2.66 4.83 3.13 5.63 2.5.81 5.24 1.23 7.46 4.53 3.99 6.8 6.72 14.86 10.04 24.6 1.45 4.58 2.17 8.65 4.25 13.4.47 1.08 1.25 2.6 1.8 3.75 3.9 8.08 12.95 11.79 20.23 8.28 7.22-3.48 9.98-12.74 6.22-20.78-.56-1.16-1.33-2.84-1.91-3.94-2.42-4.58-5.16-7.65-7.84-11.65-5.54-8.67-10.13-15.86-12.97-23.22-1.19-3.8.2-6.16 1.12-8.63-.55-.63-1.74-4.22-2.44-5.9a190.3 190.3 0 0 0 84.32-106.07c1.89.3 5.18.88 6.25 1.1 2.2-1.45 4.22-3.35 8.18-3.03 7.81 1.13 15.83 4.03 25.5 7.5 4.5 1.72 8.13 3.72 13.13 5.06 1.06.28 2.57.55 3.78.81q.14.04.28.1.12 0 .22.03c8.67 1.86 17.1-2.88 18.88-10.7 1.78-7.8-3.76-15.72-12.38-17.8-1.25-.29-3.03-.77-4.25-1-5.09-.97-9.23-.73-14.03-1.13-10.22-1.07-18.7-1.94-26.22-4.31-3.07-1.2-5.25-4.84-6.31-6.35l-5.9-1.71a189 189 0 0 0-3.07-68.29 189 189 0 0 0-27.4-63.34c1.5-1.38 4.37-3.91 5.18-4.66.24-2.62.03-5.37 2.75-8.28 5.75-5.4 13-9.88 21.75-15.28 4.15-2.44 8-4.01 12.16-7.1.94-.69 2.23-1.79 3.22-2.59 7.01-5.6 8.63-15.24 3.59-21.56s-14.8-6.9-21.81-1.31c-1 .8-2.36 1.82-3.25 2.6-3.93 3.37-6.35 6.7-9.66 10.21-7.21 7.33-13.17 13.44-19.72 17.85-2.83 1.65-6.99 1.08-8.87.96l-5.57 3.97a191.7 191.7 0 0 0-121.4-58.65c-.13-1.95-.3-5.47-.35-6.53-1.9-1.83-4.2-3.38-4.78-7.32-.63-7.86.43-16.32 1.66-26.53.68-4.77 1.8-8.73 2-13.9.04-1.18-.03-2.89-.03-4.16 0-8.97-6.55-16.25-14.63-16.25zm-18.3 113.44-4.35 76.72-.32.15a12.9 12.9 0 0 1-20.46 9.88l-.13.06-62.9-44.6a150.7 150.7 0 0 1 72.56-39.53q7.8-1.75 15.6-2.68zm36.65 0a152 152 0 0 1 87.62 42.25l-62.5 44.31-.22-.1a12.9 12.9 0 0 1-20.5-9.84l-.06-.03zm-147.63 70.87 57.44 51.38-.06.31a12.88 12.88 0 0 1-5.07 22.16l-.06.25-73.62 21.25a150.6 150.6 0 0 1 21.37-95.35zm258.16.03c8.53 13.84 15 29.29 18.84 46.03a152 152 0 0 1 3.19 49.04l-74-21.32-.06-.3a12.9 12.9 0 0 1-5.07-22.17l-.03-.15zm-140.66 55.32h23.53L394.11 532l-5.25 22.81-21.13 10.16-21.18-10.2-5.25-22.8zm75.44 62.56q1.5-.06 2.97.22l.12-.16 76.16 12.88a150.8 150.8 0 0 1-60.97 76.59l-29.56-71.4.1-.13a12.9 12.9 0 0 1 11.18-18zm-127.9.31a12.9 12.9 0 0 1 11.65 17.97l.22.28-29.25 70.69a151.4 151.4 0 0 1-60.78-76.06l75.5-12.82.12.16q1.28-.24 2.53-.22zm63.77 30.97c2.03-.07 4.08.34 6.04 1.28a12.8 12.8 0 0 1 5.78 5.5h.28l37.22 67.25q-7.25 2.43-14.88 4.16a151 151 0 0 1-82.53-4.25l37.13-67.13h.06a12.9 12.9 0 0 1 10.9-6.81z" fill="white" transform="translate(-6.33 -174.75)"/></svg>
